<svg width="24" height="24" viewBox="0 0 24 24" fill="none" xmlns="http://www.w3.org/2000/svg">
<path d="M12 16.475C13.65 15.1417 14.8958 13.8583 15.7375 12.625C16.5792 11.3917 17 10.2333 17 9.15C17 7.65 16.5333 6.41667 15.6 5.45C14.6667 4.48333 13.4667 4 12 4C10.5333 4 9.33333 4.48333 8.4 5.45C7.46667 6.41667 7 7.65 7 9.15C7 10.2333 7.42083 11.3917 8.2625 12.625C9.10417 13.8583 10.35 15.1417 12 16.475ZM12 18.525C11.8 18.525 11.6 18.4917 11.4 18.425C11.2 18.3583 11.0167 18.2583 10.85 18.125C8.88333 16.5583 7.41667 15.0292 6.45 13.5375C5.48333 12.0458 5 10.5833 5 9.15C5 7.06667 5.65 5.35417 6.95 4.0125C8.25 2.67083 9.93333 2 12 2C14.0667 2 15.75 2.67083 17.05 4.0125C18.35 5.35417 19 7.06667 19 9.15C19 10.5833 18.5167 12.0458 17.55 13.5375C16.5833 15.0292 15.1167 16.5583 13.15 18.125C12.9833 18.2583 12.8 18.3583 12.6 18.425C12.4 18.4917 12.2 18.525 12 18.525ZM12 11C12.55 11 13.0208 10.8042 13.4125 10.4125C13.8042 10.0208 14 9.55 14 9C14 8.45 13.8042 7.97917 13.4125 7.5875C13.0208 7.19583 12.55 7 12 7C11.45 7 10.9792 7.19583 10.5875 7.5875C10.1958 7.97917 10 8.45 10 9C10 9.55 10.1958 10.0208 10.5875 10.4125C10.9792 10.8042 11.45 11 12 11ZM6 22C5.71667 22 5.47917 21.9042 5.2875 21.7125C5.09583 21.5208 5 21.2833 5 21C5 20.7167 5.09583 20.4792 5.2875 20.2875C5.47917 20.0958 5.71667 20 6 20H18C18.2833 20 18.5208 20.0958 18.7125 20.2875C18.9042 20.4792 19 20.7167 19 21C19 21.2833 18.9042 21.5208 18.7125 21.7125C18.5208 21.9042 18.2833 22 18 22H6Z" fill="#001833"/>
</svg>
